<?xml version="1.0" standalone="no"?>
<!DOCTYPE svg PUBLIC "-//W3C//DTD SVG 20010904//EN"
 "http://www.w3.org/TR/2001/REC-SVG-20010904/DTD/svg10.dtd">
<svg version="1.0" xmlns="http://www.w3.org/2000/svg"
 width="583.000000pt" height="674.000000pt" viewBox="0 0 583.000000 674.000000"
 preserveAspectRatio="xMidYMid meet">
<metadata>
Created by potrace 1.16, written by Peter Selinger 2001-2019
</metadata>
<g transform="translate(0.000000,674.000000) scale(0.100000,-0.100000)"
fill="#000000" stroke="none">
<path d="M2639 6726 c-90 -35 -163 -101 -209 -193 -22 -42 -25 -61 -25 -153 0
-92 3 -111 25 -153 49 -97 123 -162 221 -196 l48 -16 -1051 -359 c-1025 -350
-1052 -359 -1077 -343 -62 40 -95 49 -157 45 -72 -4 -119 -31 -162 -92 -24
-35 -27 -48 -27 -121 0 -73 3 -86 27 -121 35 -50 86 -84 135 -91 l39 -5 67
-1847 c37 -1015 69 -1867 71 -1892 l5 -46 -68 -6 c-198 -17 -385 -161 -466
-360 -28 -67 -30 -81 -30 -207 0 -126 2 -140 30 -207 61 -151 177 -267 328
-328 67 -28 81 -30 207 -30 126 0 140 2 207 30 151 61 267 177 328 328 28 67
30 81 30 207 0 126 -2 140 -30 207 -75 187 -232 317 -429 357 l-56 11 1253
1147 1252 1147 34 -26 c129 -99 334 -98 463 0 19 15 38 27 43 27 7 0 1431
-748 1464 -769 12 -8 8 -18 -17 -58 -43 -67 -62 -134 -62 -218 0 -127 53 -237
150 -314 72 -57 144 -81 240 -81 96 0 168 24 240 81 97 77 150 187 150 314 0
127 -53 237 -150 314 -132 104 -324 110 -461 15 -22 -15 -41 -25 -42 -23 -3 3
-782 2505 -794 2550 -4 12 5 18 34 22 50 8 115 55 150 109 25 37 28 50 28 129
0 81 -2 90 -30 130 -17 24 -50 57 -74 74 -40 28 -49 30 -131 30 -82 0 -91 -2
-131 -30 -24 -17 -57 -50 -74 -74 -26 -37 -30 -53 -33 -119 -3 -62 1 -85 17
-115 15 -30 16 -37 5 -33 -8 3 -312 149 -675 323 l-660 317 49 17 c99 34 173
98 222 196 22 42 25 61 25 153 0 92 -3 111 -25 154 -37 73 -100 138 -167 171
-50 26 -71 30 -148 32 -57 2 -103 -2 -126 -11z m-64 -1092 c-89 -201 -167
-370 -172 -375 -5 -5 -25 0 -51 12 -38 19 -48 20 -109 9 -162 -28 -398 -161
-563 -317 -65 -61 -69 -63 -119 -63 -84 0 -151 36 -176 94 -20 46 0 99 62 167
87 94 181 129 350 131 84 1 93 3 93 19 0 20 -27 24 -155 19 -180 -6 -334 -84
-386 -195 -22 -48 -24 -125 -4 -164 29 -58 126 -111 201 -111 21 0 19 -5 -26
-66 -74 -97 -84 -120 -85 -196 0 -60 3 -70 29 -97 40 -42 85 -54 175 -49 175
11 370 143 371 251 0 19 -11 39 -30 59 -29 29 -34 30 -99 26 -94 -5 -204 -59
-287 -142 -70 -71 -92 -104 -72 -111 7 -3 47 27 88 67 84 82 148 120 237 143
68 17 107 9 117 -23 17 -53 -54 -128 -174 -185 -70 -33 -98 -41 -162 -45 -87
-5 -121 8 -139 55 -15 41 35 132 129 233 l80 86 87 12 c167 24 429 126 516
200 47 40 51 54 -54 -181 -69 -153 -81 -173 -136 -226 -66 -63 -83 -108 -61
-160 11 -28 -30 -123 -727 -1687 l-738 -1657 -67 1784 c-37 981 -67 1827 -67
1879 l-1 96 43 11 c49 14 113 70 133 119 20 48 18 142 -4 185 l-18 36 1055
361 c581 198 1061 361 1067 361 7 1 -61 -164 -151 -365z m945 18 c366 -177
683 -332 705 -345 22 -14 57 -30 77 -37 l37 -11 -467 -559 c-256 -308 -469
-556 -473 -552 -11 12 -260 773 -257 783 2 6 48 28 103 48 163 62 298 149 330
211 38 74 1 130 -86 130 -94 0 -184 -49 -396 -212 -8 -6 -17 9 -30 49 l-20 58
52 40 c28 22 50 46 47 53 -6 20 -25 14 -65 -19 -22 -18 -42 -28 -47 -23 -8 9
-240 708 -240 725 0 13 -20 22 730 -339z m-632 -30 c67 -202 122 -371 122
-375 0 -12 -126 -67 -155 -67 -22 0 -24 2 -13 25 40 89 -181 160 -335 107 -51
-17 -57 -17 -52 -3 20 55 301 680 305 681 3 0 60 -165 128 -368z m-152 -347
c33 -14 35 -17 28 -49 -5 -30 -2 -39 21 -61 20 -18 39 -25 67 -25 l39 0 -36
-31 c-19 -17 -71 -72 -114 -123 l-80 -92 -146 -36 c-82 -21 -182 -54 -229 -77
l-84 -39 18 42 c34 78 133 301 134 303 1 1 24 -9 51 -22 60 -31 125 -32 197
-5 61 23 148 80 148 97 0 23 -20 24 -50 3 -130 -93 -310 -99 -310 -11 0 75
113 139 248 140 34 1 78 -6 98 -14z m808 -11 c16 -41 -74 -134 -184 -189 -40
-20 -108 -50 -153 -66 -83 -31 -96 -29 -97 13 0 31 197 189 290 232 63 30 135
35 144 10z m-1208 -28 c19 -14 19 -15 -1 -51 -39 -73 -160 -149 -332 -209 -94
-32 -251 -71 -259 -64 -2 2 22 24 53 48 244 196 345 259 448 278 70 14 69 14
91 -2z m2426 -1273 c219 -702 396 -1278 395 -1279 -2 -2 -1433 750 -1464 769
-9 6 -3 22 22 60 45 68 65 136 65 222 0 187 -119 342 -299 388 l-50 13 461
552 c253 304 463 552 467 552 4 0 185 -575 403 -1277z m-1713 1167 l12 -45
-73 -76 c-47 -49 -83 -78 -101 -81 l-29 -6 38 39 c31 32 36 41 25 51 -10 11
-23 2 -66 -44 -47 -50 -85 -73 -85 -52 0 13 116 151 183 218 76 75 75 75 96
-4z m195 -587 c71 -214 131 -394 134 -400 3 -9 -7 -13 -32 -13 -90 0 -218 -79
-281 -173 -45 -67 -65 -135 -65 -220 0 -90 22 -162 69 -229 l38 -55 -1205
-1104 c-1359 -1245 -1299 -1190 -1285 -1164 5 11 335 752 733 1647 l724 1626
71 -5 c88 -7 154 12 256 71 90 53 220 172 291 267 28 38 55 69 60 69 5 0 2
-10 -6 -22 -22 -32 -20 -38 14 -38 24 0 34 7 52 39 14 25 32 41 48 44 14 3 26
4 27 3 1 0 -35 -42 -79 -91 -112 -125 -150 -184 -156 -243 -3 -41 0 -53 20
-76 20 -24 32 -28 69 -28 78 2 190 55 249 117 19 21 21 25 7 30 -9 4 -40 -10
-75 -35 -71 -48 -137 -73 -184 -68 -28 3 -33 7 -30 26 3 32 82 144 196 278 78
91 102 114 133 122 82 21 65 51 207 -375z m-649 255 c-226 -244 -316 -308
-429 -308 -70 0 -74 8 -37 92 27 61 41 80 79 106 68 45 167 88 284 121 144 42
151 41 103 -11z"/>
</g>
</svg>
